# xmcd
#
# Track frame offsets: 
#        150
#        1631
#        5746
#        15892
#        20487
#        33079
#        35679
#        39427
#        48011
#        63988
#        66912
#        69641
#        70383
#        85439
#        95642
#        106732
#        145860
#        220951
#        229526
#        240613
#        250677
#        264277
#        266318
#        277383
#
# Disc length: 3935 seconds
#
# Revision: 0
# Processed by: cddbd v1.5.2PL0 Copyright (c) Steve Scherf et al.
# Submitted via: ExactAudioCopy v0.95b4
#
DISCID=400f5d18
DTITLE=The Beatles  - AB  Road - Complete Purple Chick Set v1.1 Jan.09
DTITLE=Various Artist - D4  FLAC
DYEAR=1900
DGENRE=
TTITLE0=For You Blue 9.94a
TTITLE1=Get Off 9.94b
TTITLE2=Honey, Hush 9.95
TTITLE3=For You Blue 9.96
TTITLE4=For You Blue 9.97
TTITLE5=For You Blue 9.98
TTITLE6=Hitch Hike 9.99
TTITLE7=For You Blue 9.100
TTITLE8=For You Blue 9.101
TTITLE9=Quit Your Messing Around 9.102
TTITLE10=Instrumental 9.103
TTITLE11=All Together Now 9.104
TTITLE12=Ramblin' Woman 9.105
TTITLE13=I Threw It All Away 9.106
TTITLE14=Mama, You Been On My Mind 9.107
TTITLE15=Let It Be 9.108
TTITLE16=Let It Be 9.109
TTITLE17=Let It Be 9.110
TTITLE18=Let It Be 9.111
TTITLE19=Let It Be 9.112
TTITLE20=That'll Be The Day 9.113
TTITLE21=I've Got A Feeling 9.114
TTITLE22=Jenny, Jenny - Slippin' And Slidin' 9.115
TTITLE23=Let It Be 9.116
EXTD=
EXTT0=
EXTT1=
EXTT2=
EXTT3=
EXTT4=
EXTT5=
EXTT6=
EXTT7=
EXTT8=
EXTT9=
EXTT10=
EXTT11=
EXTT12=
EXTT13=
EXTT14=
EXTT15=
EXTT16=
EXTT17=
EXTT18=
EXTT19=
EXTT20=
EXTT21=
EXTT22=
EXTT23=
PLAYORDER=
